# xmcd CD database file
#
# Track frame offsets:
#	150
#	21627
#	35522
#	52092
#	71515
#	91352
#	109020
#	117467
#	135997
#	151290
#	167445
#	178752
#	197930
#	214417
#
# Disc length: 3081 seconds
#
# Revision: 9
# Processed by: cddbd v1.5.2PL0 Copyright (c) Steve Scherf et al.
# Submitted via: jetAudio 7
#
DISCID=cc0c070e
DTITLE=Cazuza - Esse Cara
DYEAR=1995
DGENRE=Rock Nacional
TTITLE0=O Tempo Não Para
TTITLE1=Faz Parte Do Meu Show
TTITLE2=Exagerado
TTITLE3=Vida Louca Vida
TTITLE4=Pro Dia Nascer Feliz (Cazuza com Barão Vermelho)
TTITLE5=Solidão Que Nada
TTITLE6=Esse Cara
TTITLE7=Ideologia
TTITLE8=Bete Balanço (Cazuza com Barão Vermelho)
TTITLE9=Nosso Amor A Gente Inventa (Estória Romântica)
TTITLE10=Codinome Beija-Flor
TTITLE11=Blues Da Piedade
TTITLE12=Vida Fácil
TTITLE13=Só As Mães São Felizes
EXTD=YEAR: 1995
EXTT0=
EXTT1=
EXTT2=
EXTT3=
EXTT4=
EXTT5=
EXTT6=
EXTT7=
EXTT8=
EXTT9=
EXTT10=
EXTT11=
EXTT12=
EXTT13=
PLAYORDER=
